
Barbarossa (2009)1080px264HD       
 


Italië / Roemenië
Drama / Avontuur
139 minuten

geregisseerd door Renzo Martinelli
met Rutger Hauer, Raz Degan en Kasia Smutniak

De noordelijke landen worden geregeerd door de Germaanse keizer Frederik I, bijgenaamd "Barbarossa". Het is zijn droom om ook centraal Europa te veroveren, zodat zijn rijk weer net zo groot wordt, als eens het rijk van Karel de Grote was. Een jongeman uit Milaan, genaamd Alberto Da Giussano, heeft echter een klein leger opgericht, bestaande uit 900 vechtlustige mannen die nergens voor terugdeinzen. Alberto is vastbesloten om de keizer te verslaan en Noord-Europa te bevrijden


English

In Italy, year 1100, the Northern lands are ruled by the German Emperor Barbarossa. His dream is to also conquer the lands in the center and the South to revive the empire that once belonged to Charles the Great. But in the North, a young man from Milan named Alberto Da Giussano has formed an army of 900 men all from different cities known as the company of death. His dream is to defeat the Emperor and give freedom back to the Northern lands.


**********************************************************************************

Extra Info:

Source..............: Barbarossa.2009.1080p.BluRay.x264-iNVANDRAREN "invandraren-barbarossa.1080p
Bitrate.............: 8 614 Kbps

Audio
Formaat.............: DTS
Bitrate.............: 1510 Kbps
Kanaal(en)..........: 6 kanalen
Kanaalposities......: Front: L C R, Side: L R, LFE
Audo................: English	

Ondertiteling.......: Nederlands
Vertaling...........: Noppes

Controle en Sync....: Guiker
Bewerking Source....: Guiker

**********************************************************************************
Spotinformatie 
Categorie : Beeld 
Formaat : x264HD 
Bron : Retail
 
Ondertitels : Nederlands (instelbaar)
 
Genre : Avontuur
Drama

Format                           : Matroska
File size                        : 8.75 GiB
Duration                         : 2h 3mn
Overall bit rate                 : 10.1 Mbps
Encoded date                     : UTC 2010-10-18 18:19:14
Writing application              : mkvmerge v4.3.0 ('Escape from the Island') gemaakt op Sep  5 2010 10:30:51
Writing library                  : libebml v1.0.0 + libmatroska v1.0.0

Video
ID                               : 1
Format                           : AVC
Format/Info                      : Advanced Video Codec
Format profile                   : High@L4.1
Format settings, CABAC           : Yes
Format settings, ReFrames        : 3 frames
Muxing mode                      : Container profile=Unknown@4.1
Codec ID                         : V_MPEG4/ISO/AVC
Duration                         : 2h 3mn
Bit rate                         : 8 411 Kbps
Nominal bit rate                 : 8 614 Kbps
Width                            : 1 920 pixels
Height                           : 816 pixels
Display aspect ratio             : 2.35
Frame rate                       : 25.000 fps
Resolution                       : 24 bits
Colorimetry                      : 4:2:0
Scan type                        : Progressive
Bits/(Pixel*Frame)               : 0.215
Stream size                      : 7.27 GiB (83%)
Writing library                  : x264 core 104 r1713 c276662
Encoding settings                : cabac=1 / ref=4 / deblock=1:0:0 / analyse=0x3:0x113 / me=umh / subme=7 / psy=1 / psy_rd=1.00:0.00 / mixed_ref=1 / me_range=16 / chroma_me=1 / trellis=1 / 8x8dct=1 / cqm=0 / deadzone=21,11 / fast_pskip=0 / chroma_qp_offset=-2 / threads=6 / sliced_threads=0 / nr=0 / decimate=0 / interlaced=0 / constrained_intra=0 / bframes=3 / b_pyramid=1 / b_adapt=1 / b_bias=0 / direct=1 / weightb=1 / open_gop=0 / weightp=2 / keyint=250 / keyint_min=25 / scenecut=40 / intra_refresh=0 / rc=2pass / mbtree=0 / bitrate=8614 / ratetol=1.0 / qcomp=0.60 / qpmin=10 / qpmax=51 / qpstep=4 / cplxblur=20.0 / qblur=0.5 / ip_ratio=1.40 / pb_ratio=1.30 / aq=1:1.00

Audio
ID                               : 2
Format                           : DTS
Format/Info                      : Digital Theater Systems
Codec ID                         : A_DTS
Duration                         : 2h 3mn
Bit rate mode                    : Constant
Bit rate                         : 1 510 Kbps
Channel(s)                       : 6 channels
Channel positions                : Front: L C R, Surround: L R, LFE
Sampling rate                    : 48.0 KHz
Resolution                       : 24 bits
Stream size                      : 1.31 GiB (15%)

Text
ID                               : 3
Format                           : UTF-8
Codec ID                         : S_TEXT/UTF8
Codec ID/Info                    : UTF-8 Plain Text
Language                         : Dutch


 
Weblink :  http://www.moviemeter.nl/film/57381
Weblink :  http://www.imdb.com/title/tt1242516
 
 
******************************************

Brought to you by 
Pioen

2Lions Team

meer zien??
Kom dan eens kijken op ons forum 
                                        
http://www.2lions-site.nl


2Lions the site to be for all your Dutch MOVIES and more

******************************************


DON T HIT AND RUN Niet gelijk afhaken als de FILM binnen is blijf seeden. 

Don`t quit after you finished the download, but keep seeding


There are fake torrents from uploaders who use our team name.
Those are not ours, or members from our team.
We 2Lions-Team are not responsible for the fake posts on our name

Wij 2Lions-Team zijn niet verantwoordelijk voor die zieke FAKE posten die op onze naam worden gedaan

   
 


 
 
 
